Coordinates
datacolumns 6
datarows 91
range 38.72 39.62
inDegrees=yes
Units are S.I. units (second, meters, Newtons, ...)
If the header above contains a line with 'inDegrees', this indicates whether rotational values are in degrees (yes) or radians (no).
endheader
time	foot_tx	hip_flexion_r	knee_angle_r	ankle_angle_r	lumbar
38.72	0.24122423	56.21604558	-84.47823776	3.3196426	-35.07570573
38.73	0.24122403	56.23872171	-84.46330084	3.31117225	-35.18275331
38.74	0.24122591	56.26313853	-84.44646737	3.30095775	-35.29997545
38.75	0.24122974	56.28974576	-84.42783317	3.2890619	-35.42784597
38.76	0.24123379	56.31855708	-84.40798636	3.27611962	-35.56669087
38.77	0.24123734	56.35016987	-84.38776604	3.26296552	-35.71601209
38.78	0.24123888	56.38398377	-84.36769366	3.25035025	-35.87674969
38.79	0.24123707	56.42368117	-84.34833156	3.23817883	-36.04565179
38.8	0.24123044	56.46615099	-84.3293349	3.22684805	-36.22668252
38.81	0.24121818	56.51294205	-84.31066133	3.21611465	-36.41876553
38.82	0.24120113	56.56620576	-84.29230791	3.2057035	-36.61983667
38.83	0.24117712	56.62506789	-84.27401203	3.19574917	-36.83087371
38.84	0.24114661	56.69302993	-84.25624535	3.18624464	-37.0477477
38.85	0.24110922	56.77027688	-84.23861073	3.17721541	-37.27008795
38.86	0.24106741	56.85972827	-84.22084466	3.16825702	-37.49437936
38.87	0.24101564	56.96065504	-84.20416704	3.16080338	-37.72085325
38.88	0.24096237	57.07513964	-84.18690721	3.15330099	-37.94741743
38.89	0.24091369	57.2472822	-84.1718017	3.14222842	-38.12830181
38.9	0.24085597	57.34831268	-84.15193855	3.13858326	-38.39673469
38.91	0.24081007	57.53699173	-84.13585297	3.12862035	-38.58875453
38.92	0.24076298	57.68076259	-84.11629544	3.12357173	-38.84183453
38.93	0.24072875	57.88712711	-84.09958793	3.11461426	-39.04499499
38.94	0.24069951	58.10002342	-84.08285634	3.10687839	-39.25667563
38.95	0.24067595	58.32128055	-84.06652679	3.10065294	-39.47522602
38.96	0.24065727	58.55237592	-84.05080278	3.09610472	-39.69959916
38.97	0.24064268	58.79453097	-84.03570818	3.09321843	-39.92918337
38.98	0.24063138	59.04870944	-84.02122017	3.09194716	-40.16354176
38.99	0.24062299	59.31577653	-84.00730509	3.09224004	-40.40207036
39	0.24061267	59.65305193	-84.00090558	3.09233612	-40.58396738
39.01	0.24060857	59.93561668	-83.98851441	3.09759398	-40.84071902
39.02	0.24060283	60.29125265	-83.98378768	3.10265799	-41.03726128
39.03	0.24059971	60.63199657	-83.97782379	3.11185182	-41.26585907
39.04	0.24059794	60.98714227	-83.97406485	3.12421402	-41.49528441
39.05	0.24059561	61.35726307	-83.97243228	3.1397633	-41.72516173
39.06	0.24058988	61.74399985	-83.97310213	3.15855863	-41.95438514
39.07	0.24058484	62.14688253	-83.97479922	3.17968083	-42.18455948
39.08	0.24056816	62.56843984	-83.98009095	3.20505459	-42.41336228
39.09	0.24054877	63.0068207	-83.98587417	3.23253448	-42.6443458
39.1	0.24052467	63.4639347	-83.9931918	3.26279464	-42.87600961
39.11	0.24049894	63.93722668	-84.00156721	3.29563643	-43.11141392
39.12	0.2404749	64.4246216	-84.01043708	3.33071961	-43.35335196
39.13	0.24045352	64.93176818	-84.01980928	3.36761396	-43.59698857
39.14	0.24043039	65.45419464	-84.03224642	3.40847988	-43.84714547
39.15	0.24041409	65.99830399	-84.04433204	3.45009032	-44.10019718
39.16	0.24040316	66.5679097	-84.05680963	3.49236373	-44.35440681
39.17	0.24038975	67.17426726	-84.07032296	3.53471233	-44.60036823
39.18	0.24038255	67.82082511	-84.08269842	3.57528228	-44.8361468
39.19	0.24036675	68.50488015	-84.09690239	3.61796316	-45.06277019
39.2	0.24035462	69.22739808	-84.10952587	3.66133426	-45.27747032
39.21	0.2403395	69.98474399	-84.1216952	3.70796471	-45.48107585
39.22	0.24032498	70.77791392	-84.13289828	3.75796163	-45.67025383
39.23	0.24030213	71.59807477	-84.14462262	3.81459426	-45.85066028
39.24	0.24028877	72.45006533	-84.15310214	3.87515572	-46.01417174
39.25	0.24026679	73.32158014	-84.16287945	3.94607763	-46.1679136
39.26	0.24025169	74.21846281	-84.17137195	4.02563622	-46.30146317
39.27	0.24021889	75.12805437	-84.18500659	4.12141479	-46.42198051
39.28	0.24019341	76.06653303	-84.19761026	4.22770847	-46.50887521
39.29	0.24015524	77.03566739	-84.21593733	4.35040811	-46.55332309
39.3	0.24010601	78.03773272	-84.23879897	4.48952241	-46.54734618
39.31	0.24003762	79.07170286	-84.26707337	4.64704847	-46.48564762
39.32	0.23994757	80.13193093	-84.29921783	4.82376988	-46.36814541
39.33	0.23983163	81.20552461	-84.33271379	5.02125626	-46.20366386
39.34	0.23970183	82.28865374	-84.36416442	5.23818247	-45.99162281
39.35	0.23955579	83.3724214	-84.3911092	5.47559187	-45.73769474
39.36	0.23940956	84.4471574	-84.40991802	5.73172363	-45.45041934
39.37	0.23927959	85.50500982	-84.41848764	6.00447097	-45.13765032
39.38	0.23918312	86.53811515	-84.41584453	6.29132921	-44.8079909
39.39	0.23913657	87.54018628	-84.40303533	6.58961835	-44.46852758
39.4	0.23915229	88.50508725	-84.38179155	6.89677849	-44.12551795
39.41	0.23923273	89.42477182	-84.35523516	7.21150813	-43.78569994
39.42	0.23937813	90.28215533	-84.32683202	7.53401277	-43.46479744
39.43	0.23957681	91.06652949	-84.2970704	7.86353802	-43.16920447
39.44	0.23982119	91.75881401	-84.2665817	8.20029728	-42.91442107
39.45	0.24009928	92.34271866	-84.23324162	8.54341254	-42.7123845
39.46	0.24040441	92.7985623	-84.19658025	8.89305725	-42.5793995
39.47	0.24072985	93.12123571	-84.15341458	9.24653018	-42.51659686
39.48	0.24106868	93.30993608	-84.10085716	9.60175338	-42.52011842
39.49	0.24142016	93.3893568	-84.03369603	9.95306404	-42.55894703
39.5	0.24176621	93.3191659	-83.95133689	10.30510794	-42.67733903
39.51	0.24211104	93.16534221	-83.84403698	10.64689297	-42.80055817
39.52	0.24244422	92.92975531	-83.70714885	10.97780244	-42.92665664
39.53	0.24275764	92.62122177	-83.53401031	11.29536211	-43.04840026
39.54	0.24304437	92.2504592	-83.32008727	11.59816229	-43.15589663
39.55	0.24330056	91.82671477	-83.06095916	11.88435637	-43.24235394
39.56	0.24352459	91.35794669	-82.75365941	12.15244103	-43.30340685
39.57	0.24371611	90.85201651	-82.39698563	12.40129326	-43.3354277
39.58	0.24387718	90.31634759	-81.99123357	12.62993107	-43.33575393
39.59	0.24401528	89.75700084	-81.53694645	12.83723745	-43.30373789
39.6	0.24413098	89.17762324	-81.03671168	13.02370578	-43.24109201
39.61	0.24423839	88.58839338	-80.49225568	13.18737861	-43.14071686
39.62	0.24433707	87.98493048	-79.90779361	13.33064386	-43.01219538
